<svg width="45" height="45" viewBox="0 0 45 45" fill="none" xmlns="http://www.w3.org/2000/svg">
<g clip-path="url(#clip0_1_26)">
<path d="M25.978 1.21018C26.3017 0.916239 26.8069 0.937235 27.1058 1.25568C27.4046 1.57412 27.3833 2.07102 27.0595 2.36497C25.64 3.65623 24.5869 5.21694 23.9643 7.08909C23.388 8.81077 23.1674 10.8054 23.3453 13.101C23.6406 13.0765 23.9359 13.0415 24.2312 12.9925C24.7648 12.905 25.302 12.7685 25.8428 12.5866C25.8713 12.5761 25.8997 12.5691 25.9282 12.5621C27.7177 12.1666 29.3258 12.0582 30.7773 12.1981C32.2573 12.3381 33.5665 12.737 34.7335 13.3529C38.5117 15.3511 40.3439 18.2905 40.8812 21.5764C41.5251 25.5342 40.2408 29.9608 38.2165 33.7716C37.263 35.5668 35.694 37.9953 33.8796 39.9795C32.4886 41.5017 30.9339 42.779 29.3578 43.3598C28.0877 43.8288 26.8603 43.9582 25.672 43.8428C24.6296 43.7413 23.6228 43.4473 22.6515 43.0274C21.3743 43.6573 20.0402 44.0317 18.6278 44.0037C17.0731 43.9722 15.4543 43.4543 13.7573 42.2575V42.254C13.736 42.2401 13.7146 42.2226 13.6968 42.2051C12.0069 40.7528 10.623 39.2306 9.43828 37.6874C8.26068 36.1547 7.2752 34.594 6.38578 33.0543C4.57136 29.9293 3.87049 26.556 4.08751 23.452C4.26895 20.838 5.10145 18.406 6.46761 16.4603C7.85866 14.4832 9.80116 13.01 12.1777 12.3486C14.17 11.7922 16.454 11.8097 18.9587 12.5831V12.5866C19.5706 12.7685 20.1861 12.912 20.7944 13.003C21.1111 13.052 21.4241 13.087 21.7408 13.108C21.6376 11.6557 21.6803 10.312 21.8617 9.06622C19.809 10.2105 17.9091 10.6374 16.1516 10.4275C11.8504 9.90957 9.76559 6.38922 8.07924 2.93886L10.3846 2.70091C16.4327 1.79108 20.0438 3.8347 22.125 7.72597C22.2175 7.34454 22.3242 6.97011 22.4452 6.60968C23.1567 4.46458 24.3592 2.68341 25.978 1.21018ZM9.97549 29.6704C9.83674 29.261 10.0609 28.8131 10.4807 28.6766C10.8969 28.5401 11.3523 28.7606 11.4911 29.1735C11.9429 30.4997 12.6153 31.6895 13.4549 32.7778C14.3088 33.8766 15.3369 34.8704 16.4825 35.7908C16.824 36.0637 16.8774 36.5571 16.5999 36.8965C16.3224 37.2325 15.8208 37.285 15.4757 37.012C14.234 36.0147 13.1169 34.9369 12.1848 33.7331C11.242 32.5154 10.4842 31.1751 9.97549 29.6704ZM22.6907 14.7072C22.6444 14.7107 22.5982 14.7107 22.5555 14.7072C21.8866 14.7107 21.2178 14.6582 20.549 14.5532C19.8588 14.4482 19.1721 14.2908 18.4855 14.0843L18.4784 14.0808V14.0843C16.2833 13.4054 14.3088 13.3844 12.6046 13.8603C10.6016 14.4202 8.96155 15.6695 7.77684 17.3527C6.57078 19.0639 5.83789 21.223 5.6778 23.557C5.48212 26.374 6.12251 29.4359 7.76972 32.2809C8.62712 33.7611 9.57347 35.2623 10.7084 36.7426C11.8255 38.1983 13.124 39.6295 14.6965 40.9873C16.1125 41.9811 17.4217 42.4115 18.6527 42.436C19.8943 42.4605 21.0862 42.0826 22.2424 41.4667C22.4737 41.3407 22.7405 41.3442 22.9646 41.4457C23.8967 41.8796 24.8502 42.1841 25.825 42.282C26.782 42.3765 27.7675 42.2715 28.7921 41.8936C30.0978 41.4107 31.4462 40.2874 32.6878 38.9297C34.4133 37.047 35.8968 34.7479 36.7969 33.0508C38.6825 29.5024 39.885 25.4187 39.3015 21.8283C38.8426 19.0079 37.2559 16.4778 33.9792 14.7527C32.9938 14.2313 31.8802 13.8953 30.6208 13.7763C29.3471 13.6539 27.924 13.7519 26.3266 14.0983C25.7183 14.3012 25.1064 14.4517 24.4909 14.5567C23.9003 14.6442 23.299 14.6967 22.6907 14.7072Z" fill="black"/>
</g>
<defs>
<clipPath id="clip0_1_26">
<rect width="37" height="43" fill="white" transform="translate(4.04798 1.0042)"/>
</clipPath>
</defs>
</svg>
