<svg width="45" height="45" viewBox="0 0 45 45" fill="none" xmlns="http://www.w3.org/2000/svg">
<g clip-path="url(#clip0_1_25)">
<path d="M25.2412 34.3311C25.5746 34.4779 25.8899 34.6605 26.1871 34.8682C26.6039 35.0293 27.0605 35.1188 27.5389 35.1188C28.5572 35.1188 29.4814 34.7106 30.1518 34.0518C30.8187 33.3929 31.2318 32.4798 31.2318 31.4701C31.2318 30.4603 30.8187 29.5508 30.1518 28.8883C29.485 28.2295 28.5609 27.8213 27.5389 27.8213C26.5205 27.8213 25.5964 28.2295 24.9259 28.8883C24.2591 29.5472 23.8423 30.4603 23.8423 31.4701C23.8423 32.4762 24.2554 33.3893 24.9223 34.0518C25.0237 34.1484 25.1288 34.2415 25.2412 34.3311ZM21.5084 11.8119C21.4649 11.5039 21.4359 11.2031 21.4105 10.9095C21.4033 10.8272 21.3997 10.7448 21.396 10.666C18.7178 10.931 15.2459 9.30534 13.4919 7.38249C11.9589 5.70313 11.3029 3.50814 11.0166 0.514651C12.1256 0.471683 13.2309 0.543297 14.3399 0.80469C18.591 1.80013 20.9213 5.2627 21.3852 9.32683C21.4685 7.51856 21.9578 5.99317 22.7623 4.76498C23.8133 3.16081 25.3862 2.08301 27.2924 1.56022C27.9194 1.38835 28.5754 1.27735 29.2531 1.22722C29.8112 1.18783 30.2968 1.59961 30.3403 2.15104C30.3802 2.70248 29.9634 3.18229 29.4053 3.22526C28.8472 3.26823 28.3217 3.35417 27.8324 3.48666C26.4009 3.88054 25.2303 4.67546 24.4584 5.85352C23.6647 7.0638 23.2769 8.70378 23.4291 10.7627C23.4726 11.3464 23.5596 11.9551 23.6937 12.596C23.7626 12.5173 23.835 12.4421 23.9112 12.3669C24.8425 11.4466 26.1327 10.8773 27.5534 10.8773C28.974 10.8773 30.2642 11.4466 31.1956 12.3669C32.127 13.2871 32.7032 14.5619 32.7032 15.9655C32.7032 16.8464 32.4785 17.6735 32.0799 18.3932H32.1125C33.5984 18.3932 34.9429 18.9876 35.9178 19.9508C36.8927 20.9141 37.4943 22.2425 37.4943 23.7106C37.4943 25.1787 36.8927 26.5072 35.9178 27.4704C34.9465 28.43 33.5984 29.0244 32.1125 29.0244V29.028H32.0545C32.4568 29.7513 32.6851 30.5856 32.6851 31.4701C32.6851 32.8737 32.1089 34.1484 31.1775 35.0687C30.2859 35.9495 29.0682 36.5081 27.7201 36.5547C28.1658 37.3317 28.4231 38.2269 28.4231 39.1829C28.4231 40.651 27.8215 41.9795 26.8467 42.9427C25.8754 43.9023 24.5272 44.4967 23.0414 44.4967V44.5003C21.5555 44.5003 20.211 43.9059 19.2361 42.9427C18.2612 41.9795 17.6596 40.651 17.6596 39.1829C17.6596 38.1911 17.935 37.2637 18.4134 36.4688C17.0616 36.4222 15.8439 35.8636 14.9488 34.9827C14.0174 34.0625 13.4411 32.7878 13.4411 31.3841C13.4411 30.5534 13.6441 29.7656 14.0029 29.071C13.963 29.071 13.9231 29.071 13.8797 29.071C12.3938 29.071 11.0492 28.4766 10.0744 27.5133C9.09948 26.5537 8.49788 25.2217 8.49788 23.7536C8.49788 22.2855 9.09948 20.957 10.0744 19.9938C11.0492 19.0306 12.3938 18.4362 13.8797 18.4362C13.9087 18.4362 13.9376 18.4362 13.9666 18.4362C13.5281 17.6878 13.2781 16.8213 13.2781 15.8939C13.2781 14.4902 13.8543 13.2155 14.7857 12.2953C15.7171 11.375 17.0073 10.8057 18.4279 10.8057C19.584 10.8057 20.6495 11.1781 21.5084 11.8119ZM18.475 20.9821C18.5439 21.0931 18.6091 21.2077 18.6707 21.3258C18.7504 21.2005 18.8338 21.0788 18.9244 20.9606C18.7758 20.9749 18.6272 20.9821 18.475 20.9821ZM16.9964 28.0898C16.7934 28.2331 16.5796 28.362 16.3585 28.4766C16.2244 28.5768 16.0976 28.6878 15.978 28.8024C15.3112 29.4613 14.898 30.3744 14.898 31.3841C14.898 32.3903 15.3112 33.3034 15.978 33.9658C16.6448 34.6247 17.569 35.0329 18.591 35.0329C19.1636 35.0329 19.7036 34.904 20.1892 34.6748C20.3269 34.5924 20.4646 34.5137 20.6096 34.4421C20.8234 34.3024 21.0227 34.1449 21.204 33.9658C21.8708 33.307 22.2839 32.3939 22.2839 31.3841C22.2839 30.3779 21.8708 29.4648 21.204 28.8024C20.5371 28.1436 19.613 27.7354 18.591 27.7354C18.022 27.7354 17.4784 27.8643 16.9964 28.0898ZM16.6086 21.0573C15.9092 20.3662 14.9451 19.9401 13.8797 19.9401C12.8142 19.9401 11.8502 20.3662 11.1507 21.0573C10.4513 21.7484 10.02 22.7008 10.02 23.7536C10.02 24.8063 10.4513 25.7588 11.1507 26.4499C11.8502 27.141 12.8142 27.5671 13.8797 27.5671C14.9451 27.5671 15.9092 27.141 16.6086 26.4499C17.3081 25.7588 17.7393 24.8063 17.7393 23.7536C17.7393 22.7008 17.3081 21.7484 16.6086 21.0573ZM22.9761 18.293C22.8348 18.5508 22.6753 18.7979 22.4905 19.027C22.6137 19.0163 22.7406 19.0127 22.8674 19.0127C23.0667 19.0127 23.2624 19.0234 23.4581 19.0485C23.2769 18.8122 23.1139 18.5615 22.9761 18.293ZM21.0445 13.3158C20.3777 12.6569 19.4535 12.2487 18.4315 12.2487C17.4132 12.2487 16.489 12.6569 15.8185 13.3158C15.1517 13.9746 14.7386 14.8877 14.7386 15.8975C14.7386 16.9036 15.1517 17.8167 15.8185 18.4792C16.4854 19.138 17.4095 19.5462 18.4315 19.5462C19.4499 19.5462 20.374 19.138 21.0445 18.4792C21.7113 17.8203 22.1245 16.9072 22.1245 15.8975C22.1245 14.8877 21.7113 13.9746 21.0445 13.3158ZM27.4519 21.0537C27.2453 21.0501 27.0424 21.0322 26.843 21.0072C26.9735 21.179 27.0895 21.3617 27.1946 21.5514C27.2743 21.3796 27.3577 21.2148 27.4519 21.0537ZM30.1663 13.3838C29.4995 12.7249 28.5754 12.3132 27.5534 12.3132C26.535 12.3132 25.6109 12.7214 24.9404 13.3838C24.2736 14.0426 23.8604 14.9557 23.8604 15.9655H23.8568C23.8568 16.9717 24.2699 17.8848 24.9404 18.5472C25.6072 19.2061 26.5314 19.6143 27.5534 19.6143C28.1658 19.6143 28.7421 19.4675 29.2531 19.2061C29.3545 19.1416 29.4596 19.0807 29.5684 19.027C29.7858 18.8874 29.9851 18.7262 30.1663 18.5472C30.8332 17.8883 31.2463 16.9753 31.2463 15.9655C31.2499 14.9557 30.8368 14.0462 30.1663 13.3838ZM27.4591 26.3818C27.3975 26.2744 27.3359 26.1634 27.2816 26.0524C27.2236 26.1706 27.1583 26.2887 27.0895 26.3997C27.2127 26.389 27.3359 26.3818 27.4591 26.3818ZM34.845 21.0143C34.1456 20.3232 33.1816 19.8971 32.1161 19.8971C31.0506 19.8971 30.0866 20.3232 29.3872 21.0143C28.6877 21.7054 28.2564 22.6579 28.2564 23.7106C28.2564 24.7633 28.6877 25.7158 29.3872 26.4069C30.0866 27.098 31.0506 27.5241 32.1161 27.5241V27.5277C33.1816 27.5277 34.1456 27.098 34.845 26.4069C35.5445 25.7158 35.9758 24.7633 35.9758 23.7106C35.9758 22.6579 35.5445 21.7054 34.845 21.0143ZM23.1863 28.7451C23.1247 28.7487 23.0631 28.7523 23.0051 28.7523C23.0341 28.8024 23.0631 28.849 23.0921 28.8991C23.1211 28.849 23.1501 28.7953 23.1863 28.7451ZM25.368 21.4154C24.7302 20.7852 23.8459 20.3913 22.8674 20.3913C21.8925 20.3913 21.0083 20.7816 20.3668 21.4154C19.7289 22.0456 19.3303 22.9193 19.3303 23.8861C19.3303 24.8529 19.7253 25.723 20.3668 26.3568C21.0046 26.987 21.8889 27.3809 22.8674 27.3809C23.8423 27.3809 24.7266 26.9906 25.368 26.3568C26.0095 25.723 26.4045 24.8493 26.4045 23.8861H26.4009C26.4009 22.9193 26.0059 22.0456 25.368 21.4154ZM25.06 35.9352C24.9984 35.8994 24.9368 35.8672 24.8752 35.8278C24.3315 35.5378 23.7082 35.373 23.045 35.373V35.3695C21.9831 35.3695 21.0155 35.7992 20.3161 36.4902C19.6166 37.1813 19.1853 38.1338 19.1853 39.1865C19.1853 40.2393 19.6166 41.1917 20.3161 41.8828C21.0155 42.5739 21.9795 43 23.045 43V43.0036C24.1105 43.0036 25.0745 42.5739 25.7739 41.8828C26.4734 41.1917 26.9047 40.2393 26.9047 39.1865C26.9047 38.1338 26.4734 37.1813 25.7739 36.4902C25.5565 36.279 25.3173 36.0928 25.06 35.9352Z" fill="black"/>
</g>
<defs>
<clipPath id="clip0_1_25">
<rect width="29" height="44" fill="white" transform="translate(8.49788 0.504196)"/>
</clipPath>
</defs>
</svg>
