<svg width="44" height="44" viewBox="0 0 44 44" fill="none" xmlns="http://www.w3.org/2000/svg">
<g clip-path="url(#clip0_1_27)">
<path d="M36.1113 16.7518C37.7212 13.8683 38.3805 11.5447 37.8982 9.88604C37.4471 8.32883 35.8754 7.28952 33.006 6.8486C32.8048 6.81711 32.6313 6.71913 32.5064 6.57915C30.9936 5.19341 29.4913 4.28708 28.0028 4.22759C26.5352 4.1716 24.9981 4.95895 23.357 6.96058C22.6006 8.11187 21.7298 9.15817 20.7583 10.1135C19.7729 11.0793 18.68 11.9507 17.4829 12.738C16.2547 13.5464 15.2138 14.1097 14.2527 14.6312C12.2161 15.7334 10.5472 16.6363 8.3752 19.2678C6.46691 21.5809 5.46072 24.0304 5.40174 26.6234C5.34276 29.2374 6.23792 32.0334 8.1358 35.0149C9.75264 37.3384 11.7338 39.0111 14.0341 40.1064C16.3519 41.2122 19.0061 41.7476 21.9449 41.7896C25.0745 41.6776 27.4754 40.8693 29.3248 39.5395C31.1741 38.2098 32.496 36.3376 33.4571 34.1015C35.1086 30.2662 34.9351 28.5201 34.7339 26.4939C34.602 25.1537 34.4598 23.7015 34.7374 21.5424C34.8414 20.741 35.001 19.9537 35.2196 19.1768C35.4382 18.4 35.7227 17.6161 36.0732 16.8252C36.087 16.8007 36.1009 16.7763 36.1113 16.7518ZM11.6089 21.5074C11.8795 21.1189 12.4104 21.028 12.7955 21.2974C13.1806 21.5704 13.2708 22.1058 13.0037 22.4942C11.8379 24.1599 11.1682 25.8851 11.0746 27.6767C10.9809 29.4719 11.4632 31.3685 12.6047 33.3737C12.8371 33.7866 12.6983 34.3115 12.2889 34.5459C11.8795 34.7804 11.3591 34.6404 11.1266 34.2275C9.81856 31.9249 9.26689 29.7168 9.37792 27.5892C9.48548 25.4546 10.2592 23.432 11.6089 21.5074ZM32.9401 4.7C33.8491 3.36675 34.8102 2.30645 35.8303 1.58908C37.1349 0.668751 38.5262 0.301319 40.0181 0.609262C40.4796 0.703744 40.7745 1.15516 40.6808 1.62057C40.5871 2.08599 40.1395 2.38343 39.6781 2.28895C38.6754 2.08249 37.7212 2.34494 36.8018 2.99232C36.0246 3.53822 35.2717 4.35706 34.5326 5.39987C37.343 6.07874 38.9599 7.44349 39.5324 9.40313C40.1534 11.5377 39.4387 14.2952 37.6067 17.5741C37.3049 18.2565 37.0585 18.9458 36.8608 19.6457C36.6595 20.3596 36.5138 21.063 36.4236 21.7558C36.1703 23.719 36.3056 25.0767 36.4271 26.326C36.6491 28.5901 36.8434 30.5357 35.0149 34.7804C33.9324 37.2964 32.4301 39.4135 30.3067 40.9393C28.1902 42.4615 25.4804 43.3818 21.99 43.5078C21.9761 43.5078 21.9622 43.5078 21.9483 43.5078C18.7494 43.4693 15.8522 42.8814 13.3021 41.6636C10.7311 40.4353 8.52439 38.5737 6.72713 35.9947C6.72019 35.9842 6.71325 35.9737 6.70632 35.9632C4.61414 32.6808 3.6253 29.5594 3.69469 26.5919C3.76408 23.5965 4.90211 20.7935 7.06022 18.176C9.44731 15.282 11.2446 14.3057 13.4374 13.1229C14.3776 12.612 15.3942 12.0626 16.5462 11.3033C17.646 10.5789 18.6557 9.77406 19.5612 8.88522C20.4599 8.00689 21.2544 7.04456 21.9414 6.00176C21.9622 5.96676 21.9865 5.93527 22.0108 5.90378C24.0405 3.41574 26.0564 2.44292 28.0549 2.51991C29.7515 2.58289 31.3684 3.40874 32.9401 4.7Z" fill="black"/>
</g>
<defs>
<clipPath id="clip0_1_27">
<rect width="37" height="43" fill="white" transform="translate(3.69778 0.504196)"/>
</clipPath>
</defs>
</svg>
